<mxfile host="app.diagrams.net" agent="Mozilla/5.0 (X11; Linux x86_64; rv:139.0) Gecko/20100101 Firefox/139.0" version="28.2.5">
  <diagram name="Página-1" id="paPP1KsMQQtCQt4SMTg-">
    <mxGraphModel dx="872" dy="442" grid="1" gridSize="10" guides="1" tooltips="1" connect="1" arrows="1" fold="1" page="1" pageScale="1" pageWidth="827" pageHeight="1169" math="0" shadow="0">
      <root>
        <mxCell id="0" />
        <mxCell id="1" parent="0" />
        <mxCell id="lul4We6jXFLeoNddsFLB-1" value="Serpiente" style="shape=umlActor;verticalLabelPosition=bottom;verticalAlign=top;html=1;outlineConnect=0;" vertex="1" parent="1">
          <mxGeometry x="60" y="50" width="30" height="60" as="geometry" />
        </mxCell>
        <mxCell id="lul4We6jXFLeoNddsFLB-7" value="&lt;div&gt;BaseDatos&lt;/div&gt;&lt;div&gt;&lt;br&gt;&lt;/div&gt;" style="shape=umlActor;verticalLabelPosition=bottom;verticalAlign=top;html=1;outlineConnect=0;" vertex="1" parent="1">
          <mxGeometry x="60" y="350" width="30" height="60" as="geometry" />
        </mxCell>
        <mxCell id="lul4We6jXFLeoNddsFLB-8" value="Iniciar Partida" style="ellipse;whiteSpace=wrap;html=1;" vertex="1" parent="1">
          <mxGeometry x="430" y="200" width="90" height="60" as="geometry" />
        </mxCell>
        <mxCell id="lul4We6jXFLeoNddsFLB-9" value="Opciones" style="ellipse;whiteSpace=wrap;html=1;" vertex="1" parent="1">
          <mxGeometry x="570" y="60" width="100" height="60" as="geometry" />
        </mxCell>
        <mxCell id="lul4We6jXFLeoNddsFLB-10" value="Insertar Usuario" style="ellipse;whiteSpace=wrap;html=1;" vertex="1" parent="1">
          <mxGeometry x="245" y="310" width="80" height="40" as="geometry" />
        </mxCell>
        <mxCell id="lul4We6jXFLeoNddsFLB-11" value="insertar opciones" style="ellipse;whiteSpace=wrap;html=1;" vertex="1" parent="1">
          <mxGeometry x="240" y="250" width="90" height="40" as="geometry" />
        </mxCell>
        <mxCell id="lul4We6jXFLeoNddsFLB-12" value="Insertar Serpiente" style="ellipse;whiteSpace=wrap;html=1;" vertex="1" parent="1">
          <mxGeometry x="240" y="360" width="90" height="50" as="geometry" />
        </mxCell>
        <mxCell id="lul4We6jXFLeoNddsFLB-13" value="Información" style="ellipse;whiteSpace=wrap;html=1;" vertex="1" parent="1">
          <mxGeometry x="590" y="290" width="90" height="50" as="geometry" />
        </mxCell>
        <mxCell id="lul4We6jXFLeoNddsFLB-14" value="Usuario" style="shape=umlActor;verticalLabelPosition=bottom;verticalAlign=top;html=1;outlineConnect=0;" vertex="1" parent="1">
          <mxGeometry x="750" y="200" width="30" height="60" as="geometry" />
        </mxCell>
        <mxCell id="lul4We6jXFLeoNddsFLB-15" value="" style="endArrow=classic;html=1;rounded=0;" edge="1" parent="1" source="lul4We6jXFLeoNddsFLB-14" target="lul4We6jXFLeoNddsFLB-8">
          <mxGeometry width="50" height="50" relative="1" as="geometry">
            <mxPoint x="680" y="180" as="sourcePoint" />
            <mxPoint x="730" y="130" as="targetPoint" />
          </mxGeometry>
        </mxCell>
        <mxCell id="lul4We6jXFLeoNddsFLB-16" value="" style="endArrow=classic;html=1;rounded=0;exitX=0.25;exitY=0.1;exitDx=0;exitDy=0;exitPerimeter=0;" edge="1" parent="1" source="lul4We6jXFLeoNddsFLB-14" target="lul4We6jXFLeoNddsFLB-9">
          <mxGeometry width="50" height="50" relative="1" as="geometry">
            <mxPoint x="660" y="190" as="sourcePoint" />
            <mxPoint x="710" y="140" as="targetPoint" />
          </mxGeometry>
        </mxCell>
        <mxCell id="lul4We6jXFLeoNddsFLB-17" value="" style="endArrow=classic;html=1;rounded=0;" edge="1" parent="1" source="lul4We6jXFLeoNddsFLB-9" target="lul4We6jXFLeoNddsFLB-8">
          <mxGeometry width="50" height="50" relative="1" as="geometry">
            <mxPoint x="470" y="160" as="sourcePoint" />
            <mxPoint x="520" y="110" as="targetPoint" />
          </mxGeometry>
        </mxCell>
        <mxCell id="lul4We6jXFLeoNddsFLB-18" value="" style="endArrow=classic;html=1;rounded=0;entryX=0.5;entryY=0;entryDx=0;entryDy=0;" edge="1" parent="1" source="lul4We6jXFLeoNddsFLB-14" target="lul4We6jXFLeoNddsFLB-13">
          <mxGeometry width="50" height="50" relative="1" as="geometry">
            <mxPoint x="520" y="390" as="sourcePoint" />
            <mxPoint x="570" y="340" as="targetPoint" />
            <Array as="points" />
          </mxGeometry>
        </mxCell>
        <mxCell id="lul4We6jXFLeoNddsFLB-19" value="" style="endArrow=classic;html=1;rounded=0;entryX=1;entryY=1;entryDx=0;entryDy=0;" edge="1" parent="1" source="lul4We6jXFLeoNddsFLB-13" target="lul4We6jXFLeoNddsFLB-8">
          <mxGeometry width="50" height="50" relative="1" as="geometry">
            <mxPoint x="430" y="260" as="sourcePoint" />
            <mxPoint x="480" y="210" as="targetPoint" />
          </mxGeometry>
        </mxCell>
        <mxCell id="lul4We6jXFLeoNddsFLB-20" value="" style="endArrow=classic;html=1;rounded=0;entryX=0;entryY=0.5;entryDx=0;entryDy=0;" edge="1" parent="1" source="lul4We6jXFLeoNddsFLB-7" target="lul4We6jXFLeoNddsFLB-12">
          <mxGeometry width="50" height="50" relative="1" as="geometry">
            <mxPoint x="100" y="420" as="sourcePoint" />
            <mxPoint x="150" y="370" as="targetPoint" />
          </mxGeometry>
        </mxCell>
        <mxCell id="lul4We6jXFLeoNddsFLB-22" value="" style="endArrow=classic;html=1;rounded=0;" edge="1" parent="1" source="lul4We6jXFLeoNddsFLB-7" target="lul4We6jXFLeoNddsFLB-10">
          <mxGeometry width="50" height="50" relative="1" as="geometry">
            <mxPoint x="80" y="350" as="sourcePoint" />
            <mxPoint x="130" y="300" as="targetPoint" />
          </mxGeometry>
        </mxCell>
        <mxCell id="lul4We6jXFLeoNddsFLB-23" value="" style="endArrow=classic;html=1;rounded=0;" edge="1" parent="1" source="lul4We6jXFLeoNddsFLB-7" target="lul4We6jXFLeoNddsFLB-11">
          <mxGeometry width="50" height="50" relative="1" as="geometry">
            <mxPoint x="80" y="350" as="sourcePoint" />
            <mxPoint x="130" y="300" as="targetPoint" />
          </mxGeometry>
        </mxCell>
        <mxCell id="lul4We6jXFLeoNddsFLB-25" value="Insertar Serpiente" style="ellipse;whiteSpace=wrap;html=1;" vertex="1" parent="1">
          <mxGeometry x="210" y="90" width="90" height="50" as="geometry" />
        </mxCell>
      </root>
    </mxGraphModel>
  </diagram>
</mxfile>
